<svg width="685" height="396" viewBox="0 0 685 396" fill="none" xmlns="http://www.w3.org/2000/svg">
<g filter="url(#filter0_d_51_544)">
<rect width="657.778" height="370" rx="32" fill="#242424"/>
<rect y="46.8667" width="657.778" height="41.1111" fill="#3C3C3C"/>
<rect x="316.556" y="132.378" width="305.044" height="209.667" rx="16" fill="#3C3C3C"/>
<rect x="36.1777" y="132.378" width="261.467" height="95.3778" rx="16" fill="#3C3C3C"/>
<rect x="36.1777" y="242.556" width="261.467" height="99.4889" rx="16" fill="#3C3C3C"/>
<path d="M0 32C0 14.3269 14.3269 0 32 0H625.778C643.451 0 657.778 14.3269 657.778 32V46.8667H0V32Z" fill="#1F1F1F"/>
<path d="M164.444 23.2279C164.444 16.757 169.69 11.5112 176.161 11.5112H481.617C488.087 11.5112 493.333 16.757 493.333 23.2279V23.2279C493.333 29.6988 488.087 34.9446 481.617 34.9446H176.161C169.69 34.9446 164.444 29.6988 164.444 23.2279V23.2279Z" fill="#4E4E4E"/>
<circle cx="28.7779" cy="23.0221" r="7.4" fill="#FF5F57"/>
<circle cx="51.8004" cy="23.0221" r="7.4" fill="#FEBC2E"/>
<circle cx="74.8229" cy="23.0221" r="7.4" fill="#28C840"/>
</g>
<defs>
<filter id="filter0_d_51_544" x="0" y="0" width="684.777" height="396" filterUnits="userSpaceOnUse" color-interpolation-filters="sRGB">
<feFlood flood-opacity="0" result="BackgroundImageFix"/>
<feColorMatrix in="SourceAlpha" type="matrix" values="0 0 0 0 0 0 0 0 0 0 0 0 0 0 0 0 0 0 127 0" result="hardAlpha"/>
<feOffset dx="23" dy="22"/>
<feGaussianBlur stdDeviation="2"/>
<feComposite in2="hardAlpha" operator="out"/>
<feColorMatrix type="matrix" values="0 0 0 0 0.183333 0 0 0 0 0.181806 0 0 0 0 0.181806 0 0 0 0.5 0"/>
<feBlend mode="normal" in2="BackgroundImageFix" result="effect1_dropShadow_51_544"/>
<feBlend mode="normal" in="SourceGraphic" in2="effect1_dropShadow_51_544" result="shape"/>
</filter>
</defs>
</svg>
