<svg width="1440" height="1024" viewBox="0 0 1440 1024" fill="none" xmlns="http://www.w3.org/2000/svg">
<rect width="1440" height="1024" fill="black"/>
<rect x="720" y="327" width="657.778" height="370" rx="32" fill="#242424"/>
<rect x="720" y="373.867" width="657.778" height="41.1111" fill="#715081"/>
<rect x="1036.56" y="459.378" width="305.044" height="209.667" rx="16" fill="#434242"/>
<rect x="756.178" y="459.378" width="261.467" height="95.3778" rx="16" fill="#434242"/>
<rect x="756.178" y="569.556" width="261.467" height="99.4889" rx="16" fill="#434242"/>
<path d="M720 359C720 341.327 734.327 327 752 327H1345.78C1363.45 327 1377.78 341.327 1377.78 359V373.867H720V359Z" fill="#36333A"/>
<path d="M884.444 350.228C884.444 343.757 889.69 338.511 896.161 338.511H1201.62C1208.09 338.511 1213.33 343.757 1213.33 350.228V350.228C1213.33 356.699 1208.09 361.945 1201.62 361.945H896.161C889.69 361.945 884.444 356.699 884.444 350.228V350.228Z" fill="#5D5B61"/>
<circle cx="748.778" cy="350.022" r="7.4" fill="#FF5F57"/>
<circle cx="771.8" cy="350.022" r="7.4" fill="#FEBC2E"/>
<circle cx="794.823" cy="350.022" r="7.4" fill="#28C840"/>
</svg>
