<svg width="1080" height="1080" viewBox="0 0 1080 1080" fill="none" xmlns="http://www.w3.org/2000/svg">
<g clip-path="url(#clip0_42_328)">
<rect width="1080" height="1080" fill="black"/>
<path d="M195.676 618.562C182.284 623.074 169.536 625.33 157.434 625.33C145.402 625.33 134.696 622.573 125.314 617.059C116.005 611.473 108.736 603.953 103.508 594.5C98.2799 584.975 95.666 574.161 95.666 562.059C95.666 543.868 101.574 528.758 113.391 516.727C125.279 504.695 139.602 498.68 156.359 498.68C168.749 498.68 181.854 501.007 195.676 505.662V524.891C181.711 518.517 169.214 515.33 158.186 515.33C150.881 515.33 144.006 517.156 137.561 520.809C131.115 524.389 126.138 530.011 122.629 537.674C119.12 545.337 117.365 553.214 117.365 561.307C117.365 572.12 120.731 582.433 127.463 592.244C134.266 602.055 144.901 606.961 159.367 606.961C163.736 606.961 168.033 606.674 172.258 606.102C176.483 605.457 184.289 603.201 195.676 599.334V618.562ZM237.033 622V502.01H257.014V528.221C263.244 518.338 270.37 510.962 278.391 506.092C286.483 501.15 295.471 498.68 305.354 498.68C312.587 498.68 319.82 499.79 327.053 502.01V545.301H307.824V517.908C304.458 517.335 301.809 517.049 299.875 517.049C292.427 517.049 285.122 519.985 277.961 525.857C270.799 531.73 263.817 540.538 257.014 552.283V622H237.033ZM408.371 625.33C391.184 625.33 377.434 619.35 367.121 607.391C356.809 595.359 351.652 580.213 351.652 561.951C351.652 543.689 356.809 528.579 367.121 516.619C377.434 504.66 391.184 498.68 408.371 498.68C425.487 498.68 439.201 504.66 449.514 516.619C459.826 528.579 464.982 543.689 464.982 561.951C464.982 580.213 459.826 595.359 449.514 607.391C439.201 619.35 425.487 625.33 408.371 625.33ZM408.371 608.68C419.042 608.68 427.528 604.526 433.83 596.219C440.132 587.911 443.283 576.489 443.283 561.951C443.283 547.485 440.132 536.098 433.83 527.791C427.528 519.484 419.042 515.33 408.371 515.33C397.629 515.33 389.107 519.484 382.805 527.791C376.503 536.098 373.352 547.485 373.352 561.951C373.352 576.489 376.503 587.911 382.805 596.219C389.107 604.526 397.629 608.68 408.371 608.68ZM592.062 618.562C578.671 623.074 565.923 625.33 553.82 625.33C541.789 625.33 531.083 622.573 521.701 617.059C512.391 611.473 505.122 603.953 499.895 594.5C494.667 584.975 492.053 574.161 492.053 562.059C492.053 543.868 497.961 528.758 509.777 516.727C521.665 504.695 535.988 498.68 552.746 498.68C565.135 498.68 578.241 501.007 592.062 505.662V524.891C578.098 518.517 565.601 515.33 554.572 515.33C547.268 515.33 540.393 517.156 533.947 520.809C527.502 524.389 522.525 530.011 519.016 537.674C515.507 545.337 513.752 553.214 513.752 561.307C513.752 572.12 517.118 582.433 523.85 592.244C530.653 602.055 541.288 606.961 555.754 606.961C560.122 606.961 564.419 606.674 568.645 606.102C572.87 605.457 580.676 603.201 592.062 599.334V618.562ZM723.01 614.051C707.04 621.642 691.929 625.438 677.678 625.438C666.864 625.438 657.196 622.752 648.674 617.381C640.152 612.01 633.312 604.347 628.156 594.393C623.072 584.367 620.529 573.66 620.529 562.273C620.529 551.316 622.964 540.789 627.834 530.691C632.704 520.594 639.507 512.752 648.244 507.166C656.981 501.508 666.721 498.68 677.463 498.68C691.714 498.68 703.137 503.764 711.73 513.934C720.396 524.103 724.729 539.786 724.729 560.984V565.281H642.014C642.014 573.589 643.732 581.18 647.17 588.055C650.679 594.93 655.262 600.086 660.92 603.523C666.577 606.961 673.023 608.68 680.256 608.68C693.146 608.68 707.398 604.383 723.01 595.789V614.051ZM643.195 550.35H703.029V547.449C703.029 537.638 700.63 529.832 695.832 524.031C691.034 518.23 684.624 515.33 676.604 515.33C668.511 515.33 661.493 518.302 655.549 524.246C649.676 530.118 645.559 538.82 643.195 550.35ZM835.48 595.037C829.393 605.063 822.053 612.618 813.459 617.703C804.937 622.788 797.095 625.33 789.934 625.33C779.908 625.33 770.884 620.997 762.863 612.332C754.914 603.667 750.939 590.525 750.939 572.908C750.939 559.015 753.589 546.626 758.889 535.74C764.188 524.783 771.278 516.154 780.158 509.852C789.038 503.478 800.031 500.291 813.137 500.291C816.932 500.291 822.661 500.685 830.324 501.473C831.47 501.616 833.189 501.795 835.48 502.01V448.621H855.568V622H835.48V595.037ZM835.48 571.297V519.842C828.391 517.98 821.802 517.049 815.715 517.049C803.397 517.049 793.12 521.811 784.885 531.336C776.721 540.861 772.639 553.823 772.639 570.223C772.639 582.111 774.859 591.098 779.299 597.186C783.811 603.201 788.931 606.209 794.66 606.209C800.891 606.209 807.766 603.058 815.285 596.756C822.805 590.454 829.536 581.967 835.48 571.297ZM870.93 453.455H1002.74V622H870.93V453.455Z" fill="white"/>
<path d="M870.822 638.543H1002.84V655.193H870.822V638.543Z" fill="white"/>
<a href="https://theasciicode.com.ar/extended-ascii-code/block-graphic-character-ascii-code-219.html">
<rect fill="black" fill-opacity="0" x="792.822" y="-0.18457" width="132.021" height="293.369"/>
</a>
</g>
<defs>
<clipPath id="clip0_42_328">
<rect width="1080" height="1080" fill="white"/>
</clipPath>
</defs>
</svg>
