<svg width="1080" height="1080" viewBox="0 0 1080 1080" fill="none" xmlns="http://www.w3.org/2000/svg">
<g clip-path="url(#clip0_42_342)">
<rect width="1080" height="1080" fill="black"/>
<path d="M385.691 691.438C360.125 700.051 335.789 704.357 312.684 704.357C289.715 704.357 269.275 699.094 251.365 688.566C233.592 677.902 219.715 663.547 209.734 645.5C199.754 627.316 194.764 606.672 194.764 583.566C194.764 548.84 206.043 519.992 228.602 497.023C251.297 474.055 278.641 462.57 310.633 462.57C334.285 462.57 359.305 467.014 385.691 475.9V512.609C359.031 500.441 335.174 494.357 314.119 494.357C300.174 494.357 287.049 497.844 274.744 504.816C262.439 511.652 252.938 522.385 246.238 537.014C239.539 551.643 236.189 566.682 236.189 582.131C236.189 602.775 242.615 622.463 255.467 641.193C268.455 659.924 288.758 669.289 316.375 669.289C324.715 669.289 332.918 668.742 340.984 667.648C349.051 666.418 363.953 662.111 385.691 654.729V691.438ZM598.152 646.525C586.531 665.666 572.518 680.09 556.111 689.797C539.842 699.504 524.871 704.357 511.199 704.357C492.059 704.357 474.832 696.086 459.52 679.543C444.344 663 436.756 637.912 436.756 604.279C436.756 577.756 441.814 554.104 451.932 533.322C462.049 512.404 475.584 495.93 492.537 483.898C509.49 471.73 530.477 465.646 555.496 465.646C562.742 465.646 573.68 466.398 588.309 467.902C590.496 468.176 593.777 468.518 598.152 468.928V367.004H636.502V698H598.152V646.525ZM598.152 601.203V502.971C584.617 499.416 572.039 497.639 560.418 497.639C536.902 497.639 517.283 506.73 501.561 524.914C485.975 543.098 478.182 567.844 478.182 599.152C478.182 621.848 482.42 639.006 490.896 650.627C499.51 662.111 509.285 667.854 520.223 667.854C532.117 667.854 545.242 661.838 559.598 649.807C573.953 637.775 586.805 621.574 598.152 601.203ZM665.828 376.232H917.459V698H665.828V376.232Z" fill="white"/>
<path d="M665.623 729.582H917.664V761.369H665.623V729.582Z" fill="white"/>
<a href="https://theasciicode.com.ar/extended-ascii-code/block-graphic-character-ascii-code-219.html">
<rect fill="black" fill-opacity="0" x="504.623" y="-0.0341797" width="252.041" height="560.068"/>
</a>
</g>
<defs>
<clipPath id="clip0_42_342">
<rect width="1080" height="1080" fill="white"/>
</clipPath>
</defs>
</svg>
